<svg width="4360" height="1276" viewBox="0 0 4360 1276" fill="none" xmlns="http://www.w3.org/2000/svg">
<path d="M648.172 983.999H852.829L329.965 286H125.309L648.172 983.999Z" fill="#275141"/>
<path d="M616.197 613.457L533.279 502.759L773.481 286H978.137L616.197 613.457Z" fill="#275141"/>
<path d="M0 984H204.656L591.783 635.503L508.854 524.806L0 984Z" fill="#275141"/>
<path d="M797.666 493.243L968.698 338.544L860.741 939.918L745.177 785.644L797.666 493.243Z" fill="#275141"/>
<path d="M117.396 330.068L232.959 484.342L180.471 776.754L9.57532 930.649L117.396 330.068Z" fill="#275141"/>
<path d="M1289 984V382H1074V284H1612V382H1397V984H1289ZM1842.21 998C1792.21 998 1748.54 987.667 1711.21 967C1673.88 945.667 1644.54 916 1623.21 878C1602.54 839.333 1592.21 794.667 1592.21 744V732C1592.21 680.667 1602.54 636 1623.21 598C1643.88 559.333 1672.54 529.667 1709.21 509C1746.54 487.667 1789.54 477 1838.21 477C1885.54 477 1926.88 487.667 1962.21 509C1998.21 529.667 2026.21 558.667 2046.21 596C2066.21 633.333 2076.21 677 2076.21 727V766H1697.21C1698.54 809.333 1712.88 844 1740.21 870C1768.21 895.333 1802.88 908 1844.21 908C1882.88 908 1911.88 899.333 1931.21 882C1951.21 864.667 1966.54 844.667 1977.21 822L2062.21 866C2052.88 884.667 2039.21 904.333 2021.21 925C2003.88 945.667 1980.88 963 1952.21 977C1923.54 991 1886.88 998 1842.21 998ZM1698.21 687H1971.21C1968.54 649.667 1955.21 620.667 1931.21 600C1907.21 578.667 1875.88 568 1837.21 568C1798.54 568 1766.88 578.667 1742.21 600C1718.21 620.667 1703.54 649.667 1698.21 687ZM2125.97 984L2313.97 735L2129.97 491H2250.97L2379.97 668H2395.97L2524.97 491H2646.97L2461.97 735L2649.97 984H2526.97L2395.97 803H2379.97L2248.97 984H2125.97ZM2945.74 984C2915.74 984 2891.74 975 2873.74 957C2856.41 939 2847.74 915 2847.74 885V578H2711.74V491H2847.74V328H2950.74V491H3097.74V578H2950.74V867C2950.74 887 2960.08 897 2978.74 897H3081.74V984H2945.74ZM3478.75 998C3392.75 998 3324.42 974 3273.75 926C3223.08 877.333 3197.75 807.333 3197.75 716V552C3197.75 460.667 3223.08 391 3273.75 343C3324.42 294.333 3392.75 270 3478.75 270C3564.75 270 3633.08 294.333 3683.75 343C3735.08 391 3760.75 460.667 3760.75 552V716C3760.75 807.333 3735.08 877.333 3683.75 926C3633.08 974 3564.75 998 3478.75 998ZM3478.75 901C3534.08 901 3576.75 885 3606.75 853C3636.75 820.333 3651.75 776 3651.75 720V548C3651.75 492 3636.75 448 3606.75 416C3576.75 383.333 3534.08 367 3478.75 367C3424.75 367 3382.42 383.333 3351.75 416C3321.08 448 3305.75 492 3305.75 548V720C3305.75 776 3321.08 820.333 3351.75 853C3382.42 885 3424.75 901 3478.75 901ZM3521.75 1155C3493.08 1155 3469.75 1146 3451.75 1128C3434.42 1110.67 3425.75 1087 3425.75 1057V984H3531.75V1039C3531.75 1059 3541.08 1069 3559.75 1069H3621.75V1155H3521.75ZM3888.6 984V284H3996.6V886H4333.6V984H3888.6Z" fill="#275141"/>
</svg>
