<svg width="40" height="40" viewBox="0 0 40 40" fill="none" xmlns="http://www.w3.org/2000/svg">
<rect x="0.5" y="0.5" width="39" height="38.9998" rx="3.5" fill="white"/>
<rect x="0.5" y="0.5" width="39" height="38.9998" rx="3.5" stroke="#E4F222"/>
<path d="M18.7149 8.68649C19.3393 7.79402 20.6609 7.79402 21.2853 8.68649C21.6635 9.22717 22.3397 9.47328 22.977 9.30224C24.029 9.01991 25.0414 9.86941 24.9461 10.9544C24.8883 11.6117 25.2481 12.2349 25.8462 12.5135C26.8336 12.9734 27.0631 14.275 26.2926 15.0448C25.8258 15.5112 25.7008 16.2199 25.9799 16.8178C26.4407 17.8048 25.7798 18.9493 24.6947 19.0438C24.0374 19.101 23.4861 19.5636 23.3156 20.201C23.0341 21.2532 21.7922 21.7052 20.9002 21.0801C20.3599 20.7014 19.6403 20.7014 19.0999 21.0801C18.2079 21.7052 16.966 21.2532 16.6845 20.201C16.514 19.5636 15.9627 19.101 15.3054 19.0438C14.2203 18.9493 13.5595 17.8048 14.0202 16.8178C14.2993 16.2199 14.1743 15.5112 13.7076 15.0448C12.9371 14.275 13.1666 12.9734 14.1539 12.5135C14.752 12.2349 15.1118 11.6117 15.0541 10.9544C14.9587 9.86941 15.9711 9.01991 17.0231 9.30224C17.6604 9.47328 18.3366 9.22717 18.7149 8.68649Z" fill="#E4F222"/>
<path d="M23.8856 17.7121V17.7416L19.653 17.7431V17.7121C20.2634 17.3619 20.6847 17.0053 21.0637 16.6326H22.8017L23.8856 17.7121ZM22.8369 12.113L21.764 11.0441H21.7329C21.7329 11.0441 21.751 13.0361 19.9497 14.8479C18.1871 16.6211 16.1143 16.6251 16.1143 16.6251V16.6562L17.2072 17.7436C17.2072 17.7436 19.2498 17.7642 21.0542 15.9664C22.852 14.1747 22.8369 12.113 22.8369 12.113Z" fill="black"/>
<path d="M7.46623 28.902C7.90324 28.902 8.231 28.695 8.231 28.258C8.231 27.821 7.90899 27.6485 7.47198 27.6485H6.84521V28.902H7.46623ZM5.99994 31.0526V26.947H7.52948C8.4955 26.947 9.07052 27.5048 9.07052 28.2408C9.07052 29.0113 8.392 29.5978 7.52373 29.5978H6.84521V31.0526H5.99994Z" fill="black"/>
<path d="M11.5764 26.8492C12.9507 26.8492 13.7327 27.8555 13.7327 28.9998C13.7327 30.1441 12.9507 31.1503 11.5764 31.1503C10.2021 31.1503 9.41431 30.1441 9.41431 28.9998C9.41431 27.8555 10.2021 26.8492 11.5764 26.8492ZM10.2596 28.9998C10.2596 29.7876 10.7483 30.4316 11.5764 30.4316C12.3929 30.4316 12.8874 29.7876 12.8874 28.9998C12.8874 28.212 12.3929 27.568 11.5764 27.568C10.7483 27.568 10.2596 28.212 10.2596 28.9998Z" fill="black"/>
<path d="M14.8164 26.947L15.2937 29.6438L15.3742 30.1613H15.3915L15.495 29.6438L16.0757 26.947H17.1568L17.6973 29.6438L17.8008 30.1671H17.8238L17.9158 29.6438L18.416 26.947H19.3131L18.692 29.6438L18.3758 31.0526H17.243L16.9785 29.6438L16.6162 27.7865H16.6047L16.2137 29.6438L15.932 31.0526H14.7992L14.5059 29.6438L13.9194 26.947H14.8164Z" fill="black"/>
<path d="M22.4818 27.6658H20.6245V28.6318H22.3611V29.3333H20.6245V30.3338H22.4991V31.0526H19.7793V26.947H22.4818V27.6658Z" fill="black"/>
<path d="M24.7921 26.947C25.7351 26.947 26.2986 27.4128 26.2986 28.1143C26.2986 28.7295 25.9306 29.086 25.4994 29.2068C25.8731 29.3218 26.0169 29.6323 26.1491 30.0636C26.2641 30.4316 26.3504 30.7651 26.4941 31.0238V31.0526H25.6374C25.5109 30.8226 25.4131 30.4718 25.2866 30.1211C25.1544 29.7416 24.9646 29.5058 24.4586 29.5058H24.0216V31.0468H23.1763V26.947H24.7921ZM24.0216 28.8273H24.7461C25.2004 28.8273 25.4706 28.5858 25.4706 28.2178C25.4706 27.867 25.2119 27.6255 24.7346 27.6255H24.0216V28.8273Z" fill="black"/>
<path d="M29.7757 27.6658H27.9184V28.6318H29.6549V29.3333H27.9184V30.3338H29.7929V31.0526H27.0731V26.947H29.7757V27.6658Z" fill="black"/>
<path d="M31.7862 26.947C33.218 26.947 34.0001 27.706 34.0001 28.9538C34.0001 30.2476 33.218 31.0526 31.792 31.0526H30.4982V26.947H31.7862ZM31.3435 30.3338H31.7862C32.6143 30.3338 33.1375 29.8796 33.1375 28.9538C33.1375 28.0855 32.6143 27.6658 31.792 27.6658H31.3435V30.3338Z" fill="black"/>
</svg>
